<svg xmlns="http://www.w3.org/2000/svg" width="197.76mm" height="64.67mm" viewBox="0 0 560.57 183.3">
  <g>
    <g>
      <path d="M273.73,62.33h11.66q3.58.14,4.38,1.86a8.2,8.2,0,0,1,.66,3.71V82.47a5.76,5.76,0,0,1-1.86,4q-5.56,5.77-16.69,5.77a23.23,23.23,0,0,1-17.16-7.46,24.76,24.76,0,0,1-7.29-18,23.25,23.25,0,0,1,7.42-17.59,24.51,24.51,0,0,1,32.27-1.89,3.71,3.71,0,0,1,1.79,3,6.69,6.69,0,0,1-1.53,3.74q-2.58,3.51-4.7,3.51c-.84,0-2.19-.61-4-1.82A11.81,11.81,0,0,0,272,53.92a12.92,12.92,0,0,0-8.94,3.54,11.94,11.94,0,0,0-3.91,9.28,13.33,13.33,0,0,0,4,9.74,12.39,12.39,0,0,0,9,4,17.08,17.08,0,0,0,6.56-1.19V72.07h-5.23a6,6,0,0,1-2.92-.53A2.45,2.45,0,0,1,269.43,70a11.34,11.34,0,0,1-.27-2.78,10.6,10.6,0,0,1,.3-2.81,2.17,2.17,0,0,1,1.09-1.46A7.15,7.15,0,0,1,273.73,62.33Z" style="fill: #267764"/>
      <path d="M322.36,46.5l17.88,37a8.53,8.53,0,0,1,1.13,3.37c0,1.6-1.28,3-3.84,4.31A8.74,8.74,0,0,1,334,92.28a3.54,3.54,0,0,1-2.12-.6,4,4,0,0,1-1.19-1.26c-.24-.44-.58-1.1-1-2l-3.44-7.16H307.85l-3.45,7.16c-.44.88-.78,1.52-1,1.92a4.8,4.8,0,0,1-1.19,1.22,3.4,3.4,0,0,1-2.12.63,8.66,8.66,0,0,1-3.54-1.12c-2.56-1.24-3.84-2.65-3.84-4.25a8.64,8.64,0,0,1,1.12-3.37l17.89-37a6.09,6.09,0,0,1,5.37-3.38A5.61,5.61,0,0,1,322.36,46.5ZM317,62.4l-4.37,9.07h8.81Z" style="fill: #267764"/>
      <path d="M381.11,83.4a10.56,10.56,0,0,1,1,3.44q0,2.52-4.1,4.25a9.26,9.26,0,0,1-3.42.92,3.42,3.42,0,0,1-2.12-.63,4.7,4.7,0,0,1-1.22-1.29q-.66-1.26-5.17-12l-2.05.13h-8.35v7.49a18.2,18.2,0,0,1-.1,2.28,5.46,5.46,0,0,1-.63,1.76q-.93,1.78-5.17,1.79-4.63,0-5.43-2.45a10.93,10.93,0,0,1-.4-3.45V48.88a18.31,18.31,0,0,1,.1-2.28,5.46,5.46,0,0,1,.63-1.76q.93-1.79,5.17-1.79h14.31a18.42,18.42,0,0,1,11.33,4.24,15.67,15.67,0,0,1,4.37,5.57,17.47,17.47,0,0,1,1.72,7.82,16.43,16.43,0,0,1-5,12.32Q378.07,76.51,381.11,83.4ZM355.67,66.51h8.48A6.35,6.35,0,0,0,368,65.05a5.14,5.14,0,0,0,1.92-4.37A5.23,5.23,0,0,0,368,56.27a6.42,6.42,0,0,0-4-1.49h-8.35Z" style="fill: #267764"/>
      <path d="M421.25,65.58a15.81,15.81,0,0,1-.63,21.5,14.48,14.48,0,0,1-10.7,4.47H392.49q-4.64,0-5.43-2.52a10.9,10.9,0,0,1-.4-3.44V48.82a20.45,20.45,0,0,1,.1-2.32,5.58,5.58,0,0,1,.63-1.73q.93-1.79,5.17-1.78h16.69a13.63,13.63,0,0,1,10.21,4.24,14.08,14.08,0,0,1,4.3,10.33A13.85,13.85,0,0,1,421.25,65.58Zm-7.82,9.74a6.91,6.91,0,0,0-.37-2.52,2.35,2.35,0,0,0-1.22-1.33,10.42,10.42,0,0,0-3.71-.53,5.78,5.78,0,0,1-3.58-.92c-.79-.62-1.19-1.89-1.19-3.81s.41-3.19,1.22-3.81a6.89,6.89,0,0,1,4.08-.93c1.76,0,2.82-.46,3.18-1.39a10.23,10.23,0,0,0,.2-2.39,2.51,2.51,0,0,0-1.1-2.32,6.44,6.44,0,0,0-3.28-.66h-9.27V79.82h10.86Q413.44,79.82,413.43,75.32Z" style="fill: #267764"/>
      <path d="M455.7,46.5l17.89,37a8.64,8.64,0,0,1,1.12,3.37c0,1.6-1.28,3-3.84,4.31a8.69,8.69,0,0,1-3.55,1.13,3.54,3.54,0,0,1-2.12-.6A4,4,0,0,1,464,90.42q-.36-.66-1-2l-3.45-7.16H441.19l-3.45,7.16q-.66,1.32-1,1.92a5,5,0,0,1-1.2,1.22,3.4,3.4,0,0,1-2.12.63,8.66,8.66,0,0,1-3.54-1.12c-2.56-1.24-3.84-2.65-3.84-4.25a8.64,8.64,0,0,1,1.12-3.37l17.89-37a6.09,6.09,0,0,1,5.37-3.38A5.61,5.61,0,0,1,455.7,46.5Zm-5.37,15.9L446,71.47h8.81Z" style="fill: #267764"/>
      <path d="M500.11,62.33h11.66q3.57.14,4.37,1.86a8.2,8.2,0,0,1,.66,3.71V82.47a5.79,5.79,0,0,1-1.85,4q-5.57,5.77-16.7,5.77a23.23,23.23,0,0,1-17.16-7.46,24.76,24.76,0,0,1-7.29-18,23.28,23.28,0,0,1,7.42-17.59,24.51,24.51,0,0,1,32.27-1.89,3.71,3.71,0,0,1,1.79,3,6.74,6.74,0,0,1-1.52,3.74q-2.6,3.51-4.71,3.51c-.84,0-2.19-.61-4-1.82a11.79,11.79,0,0,0-6.63-1.82,13,13,0,0,0-8.94,3.54,11.94,11.94,0,0,0-3.91,9.28,13.33,13.33,0,0,0,4,9.74,12.37,12.37,0,0,0,9,4,17.12,17.12,0,0,0,6.56-1.19V72.07h-5.24a5.88,5.88,0,0,1-2.91-.53A2.46,2.46,0,0,1,495.8,70a11.42,11.42,0,0,1-.26-2.78,10.66,10.66,0,0,1,.29-2.81,2.18,2.18,0,0,1,1.1-1.46A7.09,7.09,0,0,1,500.11,62.33Z" style="fill: #267764"/>
      <path d="M534.33,79.89h20.41A18.5,18.5,0,0,1,557,80a5,5,0,0,1,1.75.63q1.79.93,1.79,5.17,0,4.63-2.45,5.43a11.23,11.23,0,0,1-3.45.4H528.44q-4.65,0-5.44-2.52a10.61,10.61,0,0,1-.39-3.38V48.88c0-2.25.42-3.78,1.25-4.6s2.43-1.23,4.78-1.23h26.1a18.5,18.5,0,0,1,2.29.1,5.5,5.5,0,0,1,1.75.63q1.79.93,1.79,5.17,0,4.63-2.45,5.43a10.93,10.93,0,0,1-3.45.4H534.33v6.69h13.12a18.5,18.5,0,0,1,2.29.1,5.5,5.5,0,0,1,1.75.63c1.2.62,1.79,2.34,1.79,5.17q0,4.63-2.52,5.43a11.2,11.2,0,0,1-3.44.4h-13Z" style="fill: #267764"/>
      <g>
        <path d="M272.19,130.44l.94-.69a6.34,6.34,0,0,1,2.52-1q1.62,0,3.5,2.93a6.1,6.1,0,0,1,1.16,2.93,2.53,2.53,0,0,1-.71,1.83,8,8,0,0,1-1.65,1.31l-1.81,1.1a18.87,18.87,0,0,1-3.53,1.36,17.16,17.16,0,0,1-5.16.84,20.35,20.35,0,0,1-5-.65,21.52,21.52,0,0,1-5.24-2.2,21.88,21.88,0,0,1-4.84-3.77,17.38,17.38,0,0,1-3.53-5.71,20.13,20.13,0,0,1-1.39-7.56,19.37,19.37,0,0,1,1.36-7.41,17.16,17.16,0,0,1,3.48-5.5,20,20,0,0,1,4.85-3.63,21.11,21.11,0,0,1,10.31-2.83,17.3,17.3,0,0,1,5,.76,17.68,17.68,0,0,1,3.85,1.54l1.25.74c.63.38,1.12.69,1.47.94a3.18,3.18,0,0,1,1.36,2.48,5,5,0,0,1-1.1,2.91c-1.36,1.88-2.58,2.83-3.67,2.83a5.61,5.61,0,0,1-2.67-1.16,9.06,9.06,0,0,0-5.86-1.78,11.44,11.44,0,0,0-6.7,2.36,8.8,8.8,0,0,0-2.62,3.25,11.3,11.3,0,0,0,0,9.47,9,9,0,0,0,2.67,3.3,11.26,11.26,0,0,0,6.65,2.3,10.88,10.88,0,0,0,3.06-.42A8.06,8.06,0,0,0,272.19,130.44Z" style="fill: #267764"/>
        <path d="M301.77,101.64a19.33,19.33,0,0,1,19.16,19.5,20,20,0,0,1-5.45,14.14,17.59,17.59,0,0,1-13.4,5.83,18.13,18.13,0,0,1-13.53-5.75A19,19,0,0,1,283,121.64a21.23,21.23,0,0,1,1.57-8.14,19,19,0,0,1,4.19-6.36,19.69,19.69,0,0,1,6-4A17.54,17.54,0,0,1,301.77,101.64Zm-9.53,19.74a10,10,0,0,0,3,7.56,9.29,9.29,0,0,0,13.43.08,9.94,9.94,0,0,0,3-7.59,10.08,10.08,0,0,0-3-7.64,9.52,9.52,0,0,0-6.73-2.88,9.39,9.39,0,0,0-6.7,2.91A10.05,10.05,0,0,0,292.24,121.38Z" style="fill: #267764"/>
        <path d="M333.59,132.74h14.24a6,6,0,0,1,2.51.39,2,2,0,0,1,1.05,1.23,9.65,9.65,0,0,1,0,4.45,1.78,1.78,0,0,1-.89,1.15,5.86,5.86,0,0,1-2.72.53H328.93c-2.44,0-3.87-.67-4.29-2a8.25,8.25,0,0,1-.31-2.67V106.72a13.56,13.56,0,0,1,.08-1.8,4.09,4.09,0,0,1,.49-1.39c.49-.94,1.85-1.41,4.09-1.41q3.66,0,4.34,1.93a10.21,10.21,0,0,1,.26,2.72Z" style="fill: #267764"/>
        <path d="M364.32,132.74h14.24a6,6,0,0,1,2.51.39,2,2,0,0,1,1.05,1.23,9.65,9.65,0,0,1,0,4.45,1.81,1.81,0,0,1-.89,1.15,5.86,5.86,0,0,1-2.72.53H359.66c-2.44,0-3.87-.67-4.29-2a8.25,8.25,0,0,1-.31-2.67V106.72a16.07,16.07,0,0,1,.07-1.8,4.36,4.36,0,0,1,.5-1.39q.74-1.41,4.08-1.41,3.68,0,4.35,1.93a10.65,10.65,0,0,1,.26,2.72Z" style="fill: #267764"/>
        <path d="M395.05,131.22h16.12a15.76,15.76,0,0,1,1.81.08,4.09,4.09,0,0,1,1.38.5c.95.49,1.42,1.85,1.42,4.08q0,3.66-1.94,4.29a8.68,8.68,0,0,1-2.72.32H390.39c-2.44,0-3.87-.67-4.29-2a8.2,8.2,0,0,1-.32-2.67V106.72c0-1.78.33-3,1-3.64s1.92-1,3.77-1h20.62a16.28,16.28,0,0,1,1.81.07,4.32,4.32,0,0,1,1.38.5c.95.49,1.42,1.85,1.42,4.08q0,3.67-1.94,4.3a8.73,8.73,0,0,1-2.72.31H395.05v5.29h10.36a13.64,13.64,0,0,1,1.81.08,4.16,4.16,0,0,1,1.39.49c.94.49,1.41,1.85,1.41,4.09q0,3.66-2,4.29a8.73,8.73,0,0,1-2.72.31H395.05Z" style="fill: #267764"/>
        <path d="M443.16,130.44l.94-.69a6.26,6.26,0,0,1,2.51-1q1.62,0,3.51,2.93a6.06,6.06,0,0,1,1.15,2.93,2.53,2.53,0,0,1-.71,1.83,8,8,0,0,1-1.65,1.31c-.62.39-1.23.75-1.8,1.1a19.36,19.36,0,0,1-3.54,1.36,17.15,17.15,0,0,1-5.15.84,20.37,20.37,0,0,1-5-.65,22.47,22.47,0,0,1-10.07-6,17.4,17.4,0,0,1-3.54-5.71,20.33,20.33,0,0,1-1.39-7.56,19.37,19.37,0,0,1,1.37-7.41,16.82,16.82,0,0,1,3.48-5.5,19.73,19.73,0,0,1,4.84-3.63,21.14,21.14,0,0,1,10.31-2.83,17.25,17.25,0,0,1,5,.76,17.47,17.47,0,0,1,3.85,1.54l1.26.74c.62.38,1.11.69,1.46.94a3.15,3.15,0,0,1,1.36,2.48,5,5,0,0,1-1.1,2.91c-1.36,1.88-2.58,2.83-3.66,2.83a5.53,5.53,0,0,1-2.67-1.16A9.08,9.08,0,0,0,438,111a11.47,11.47,0,0,0-6.71,2.36,8.88,8.88,0,0,0-2.61,3.25,11.2,11.2,0,0,0,0,9.47,9,9,0,0,0,2.67,3.3,11.24,11.24,0,0,0,6.65,2.3,10.88,10.88,0,0,0,3.06-.42A8.06,8.06,0,0,0,443.16,130.44Z" style="fill: #267764"/>
        <path d="M457.24,102.06h29.1a5.62,5.62,0,0,1,2.46.4,2,2,0,0,1,1.05,1.23,7.66,7.66,0,0,1,.26,2.19,7.49,7.49,0,0,1-.26,2.18,1.8,1.8,0,0,1-.89,1.12,6,6,0,0,1-2.67.47h-10V136a14.8,14.8,0,0,1-.08,1.78,4.23,4.23,0,0,1-.47,1.34,2.19,2.19,0,0,1-1.39,1.07,8.82,8.82,0,0,1-2.61.32,8.65,8.65,0,0,1-2.6-.32,2.2,2.2,0,0,1-1.36-1.07,4.24,4.24,0,0,1-.47-1.36,15.76,15.76,0,0,1-.08-1.81V109.65H457.18a5.86,5.86,0,0,1-2.46-.39,2,2,0,0,1-1-1.23,7.35,7.35,0,0,1-.27-2.2,7.09,7.09,0,0,1,.27-2.17,1.79,1.79,0,0,1,.89-1.13A6.11,6.11,0,0,1,457.24,102.06Z" style="fill: #267764"/>
        <path d="M507.86,101.64A19.31,19.31,0,0,1,527,121.14a20,20,0,0,1-5.44,14.14,17.61,17.61,0,0,1-13.4,5.83,18.1,18.1,0,0,1-13.53-5.75,19,19,0,0,1-5.58-13.72,21.23,21.23,0,0,1,1.57-8.14,19,19,0,0,1,4.19-6.36,19.69,19.69,0,0,1,6-4A17.54,17.54,0,0,1,507.86,101.64Zm-9.53,19.74a10,10,0,0,0,3,7.56,9.29,9.29,0,0,0,13.43.08,11.18,11.18,0,0,0,0-15.23,9.52,9.52,0,0,0-6.73-2.88,9.37,9.37,0,0,0-6.7,2.91A10.05,10.05,0,0,0,498.33,121.38Z" style="fill: #267764"/>
        <path d="M559.78,134a8.12,8.12,0,0,1,.79,2.72q0,2-3.25,3.35a7.1,7.1,0,0,1-2.69.73,2.73,2.73,0,0,1-1.68-.5,3.83,3.83,0,0,1-1-1c-.34-.66-1.71-3.82-4.08-9.47l-1.62.1h-6.6v5.92a13.56,13.56,0,0,1-.08,1.8,4,4,0,0,1-.49,1.39c-.49.94-1.85,1.41-4.09,1.41q-3.66,0-4.29-1.93a8.78,8.78,0,0,1-.31-2.72V106.72a13.56,13.56,0,0,1,.08-1.8,4.09,4.09,0,0,1,.49-1.39c.49-.94,1.85-1.41,4.09-1.41h11.3a14.46,14.46,0,0,1,9,3.35,12.23,12.23,0,0,1,3.46,4.39,13.81,13.81,0,0,1,1.36,6.18,13,13,0,0,1-3.93,9.74Q557.38,128.56,559.78,134Zm-20.1-13.35h6.7a5.07,5.07,0,0,0,3-1.15,4.08,4.08,0,0,0,1.52-3.46,4.14,4.14,0,0,0-1.52-3.48,5,5,0,0,0-3.14-1.18h-6.6Z" style="fill: #267764"/>
      </g>
    </g>
    <rect x="204.4" y="42.9" width="9.19" height="97.59" rx="3.15" style="fill: #267764"/>
    <g>
      <path d="M166.7,100.65,131.22,3.16A4.73,4.73,0,0,0,126.81,0c-6.2,0-82.33,0-86.65,0a4.74,4.74,0,0,0-4.39,3.12C31.36,15.25,24.44,34.29,17.55,53.21L.29,100.65A4.73,4.73,0,0,0,4.48,107c3.78.2,11.79.16,18.86.13l5.82,0v22.51a10.12,10.12,0,0,0,20.24,0V107.12H56c1.94,8.65,4.32,25.63-4.16,34a20,20,0,0,1-5.94,1.68c-4,.7-8.94,1.58-13.88,6.43-9,7.91-9,23.31-8.54,29.59a4.74,4.74,0,0,0,4.73,4.4h1.31a4.62,4.62,0,0,0,1,.1h106a4.62,4.62,0,0,0,1-.1h1.31a4.74,4.74,0,0,0,4.73-4.4c.44-6.27.5-21.67-8.53-29.59-4.95-4.85-9.9-5.73-13.88-6.43a20.18,20.18,0,0,1-5.94-1.67c-8.37-8.27-6.3-24.6-4.19-34l15,0c18.69,0,33.26.07,36.57-.12a4.74,4.74,0,0,0,4.17-6.35Zm-59.41,1.74c-3.35,12.48-6,32.39,5.08,42.57,6.54,3.79,12.74,1.09,19.42,7.73,6.13,5.27,7.7,16.33,7,25.78h-2.3v.1h-106v-.1H28.17c-.67-9.44.9-20.52,7-25.78,6.67-6.64,12.88-3.94,19.42-7.73,11-10.14,8.43-30.15,5-42.57h-15v27.22a5.39,5.39,0,0,1-10.77,0V102.39c-6.14-.11-23.28.2-29.16-.12,8.75-24,26.9-73.94,35.48-97.49,4.35-.06,80.3-.06,86.55,0,10.35,28.42,35.48,97.49,35.48,97.49C156.78,102.59,113.88,102.28,107.29,102.39Z" style="fill: #267764"/>
      <polygon points="128.63 34.49 38.36 34.49 46.12 13.15 120.87 13.15 128.63 34.49" style="fill: #65b552"/>
      <polygon points="139.46 64.24 27.53 64.24 35.29 42.9 131.7 42.9 139.46 64.24" style="fill: #65b552"/>
      <polygon points="150.29 93.98 16.7 93.98 24.47 72.64 142.52 72.64 150.29 93.98" style="fill: #65b552"/>
      <path d="M127.84,167.8H39.15c1.47-12.71,12.82-8,21.47-14,16.45-13.95,13.18-35.18,10.2-51.4H96.17C93.1,117.5,91.61,130.86,99.84,147c-4.82.85-20.37-3.11-20.15,5.39a5.38,5.38,0,0,0,5.38,5.39H115.3C122,157.13,126.9,160.8,127.84,167.8Z" style="fill: #65b552"/>
    </g>
  </g>
</svg>
