<svg xmlns="http://www.w3.org/2000/svg" width="106mm" height="105.83mm" viewBox="0 0 300.47 300">
  <g>
    <g>
      <path d="M25.24,224.4H36.43c2.29.09,3.68.68,4.19,1.78a7.81,7.81,0,0,1,.64,3.56v14a5.58,5.58,0,0,1-1.78,3.88q-5.34,5.53-16,5.53A22.31,22.31,0,0,1,7,246a23.8,23.8,0,0,1-7-17.26,22.32,22.32,0,0,1,7.12-16.88,23.52,23.52,0,0,1,31-1.81,3.58,3.58,0,0,1,1.72,2.83,6.46,6.46,0,0,1-1.47,3.59c-1.65,2.24-3.15,3.37-4.51,3.37-.8,0-2.1-.59-3.88-1.75a11.3,11.3,0,0,0-6.35-1.75,12.4,12.4,0,0,0-8.59,3.4,11.46,11.46,0,0,0-3.75,8.9A12.77,12.77,0,0,0,15.07,238a11.87,11.87,0,0,0,8.64,3.84,16.6,16.6,0,0,0,6.3-1.14v-6.93H25a5.6,5.6,0,0,1-2.79-.51,2.4,2.4,0,0,1-1.08-1.49,11.09,11.09,0,0,1-.26-2.67,10.36,10.36,0,0,1,.29-2.71A2.08,2.08,0,0,1,22.19,225,6.74,6.74,0,0,1,25.24,224.4Z" style="fill: #267764"/>
      <path d="M71.89,209.21l17.17,35.47a8.32,8.32,0,0,1,1.08,3.25q0,2.28-3.69,4.13a8.32,8.32,0,0,1-3.4,1.08,3.39,3.39,0,0,1-2-.57,3.93,3.93,0,0,1-1.15-1.21c-.23-.42-.56-1.06-1-1.91l-3.31-6.86H58l-3.3,6.86c-.43.85-.76,1.46-1,1.85a4.42,4.42,0,0,1-1.14,1.17,3.3,3.3,0,0,1-2,.61A8.41,8.41,0,0,1,47.1,252c-2.46-1.18-3.69-2.54-3.69-4.06a8.32,8.32,0,0,1,1.08-3.25l17.17-35.53a5.5,5.5,0,0,1,2.13-2.36,5.65,5.65,0,0,1,3-.89A5.38,5.38,0,0,1,71.89,209.21Zm-5.15,15.26-4.19,8.71H71Z" style="fill: #267764"/>
      <path d="M128.27,244.62a10,10,0,0,1,.95,3.31q0,2.41-3.94,4.06a8.56,8.56,0,0,1-3.27.89,3.29,3.29,0,0,1-2-.6A4.34,4.34,0,0,1,118.8,251q-.64-1.2-5-11.51l-2,.13h-8v7.19a17,17,0,0,1-.1,2.19,4.89,4.89,0,0,1-.6,1.68c-.59,1.15-2.25,1.72-5,1.72-3,0-4.7-.78-5.21-2.35a10.47,10.47,0,0,1-.38-3.31V211.5a19.34,19.34,0,0,1,.09-2.19,5.29,5.29,0,0,1,.61-1.69c.59-1.14,2.24-1.72,5-1.72H112A17.65,17.65,0,0,1,122.87,210a15.05,15.05,0,0,1,4.19,5.34,16.85,16.85,0,0,1,1.66,7.5A15.78,15.78,0,0,1,124,234.64Q125.35,238,128.27,244.62Zm-24.41-16.21H112a6.11,6.11,0,0,0,3.68-1.4,4.93,4.93,0,0,0,1.85-4.2,5,5,0,0,0-1.85-4.22,6.12,6.12,0,0,0-3.81-1.43h-8Z" style="fill: #267764"/>
      <path d="M166.78,227.52a15.18,15.18,0,0,1-.6,20.63,13.88,13.88,0,0,1-10.27,4.29H139.19c-3,0-4.7-.8-5.21-2.42a10.74,10.74,0,0,1-.38-3.3V211.43a19.47,19.47,0,0,1,.09-2.22,5.2,5.2,0,0,1,.61-1.65q.88-1.73,5-1.72h16a13.09,13.09,0,0,1,9.79,4.07,13.55,13.55,0,0,1,4.13,9.92A13.26,13.26,0,0,1,166.78,227.52Zm-7.5,9.34a6.82,6.82,0,0,0-.35-2.41,2.22,2.22,0,0,0-1.17-1.27,9.91,9.91,0,0,0-3.56-.51,5.59,5.59,0,0,1-3.44-.89q-1.14-.89-1.14-3.66c0-1.84.39-3.06,1.17-3.65a6.57,6.57,0,0,1,3.91-.89c1.7,0,2.72-.45,3.06-1.34A10.05,10.05,0,0,0,158,220a2.37,2.37,0,0,0-1-2.22,6.23,6.23,0,0,0-3.15-.64h-8.9v24.1h10.43Q159.28,241.19,159.28,236.86Z" style="fill: #267764"/>
      <path d="M199.84,209.21,217,244.68a8.32,8.32,0,0,1,1.08,3.25q0,2.28-3.69,4.13a8.36,8.36,0,0,1-3.4,1.08,3.42,3.42,0,0,1-2-.57,3.77,3.77,0,0,1-1.14-1.21c-.23-.42-.56-1.06-1-1.91l-3.3-6.86H185.92l-3.31,6.86c-.42.85-.75,1.46-1,1.85a4.64,4.64,0,0,1-1.15,1.17,3.27,3.27,0,0,1-2,.61,8.37,8.37,0,0,1-3.4-1.09c-2.46-1.18-3.69-2.54-3.69-4.06a8.32,8.32,0,0,1,1.08-3.25l17.17-35.53a5.5,5.5,0,0,1,2.13-2.36,5.65,5.65,0,0,1,3-.89A5.39,5.39,0,0,1,199.84,209.21Zm-5.15,15.26-4.19,8.71H199Z" style="fill: #267764"/>
      <path d="M242.45,224.4h11.19c2.29.09,3.69.68,4.2,1.78a8,8,0,0,1,.63,3.56v14a5.54,5.54,0,0,1-1.78,3.88q-5.34,5.53-16,5.53A22.31,22.31,0,0,1,224.21,246a23.8,23.8,0,0,1-7-17.26,22.32,22.32,0,0,1,7.12-16.88,23.52,23.52,0,0,1,31-1.81,3.57,3.57,0,0,1,1.71,2.83,6.51,6.51,0,0,1-1.46,3.59c-1.65,2.24-3.16,3.37-4.51,3.37-.81,0-2.1-.59-3.88-1.75a11.31,11.31,0,0,0-6.36-1.75,12.39,12.39,0,0,0-8.58,3.4,11.46,11.46,0,0,0-3.75,8.9,12.8,12.8,0,0,0,3.81,9.35,11.91,11.91,0,0,0,8.65,3.84,16.51,16.51,0,0,0,6.29-1.14v-6.93h-5a5.64,5.64,0,0,1-2.8-.51,2.4,2.4,0,0,1-1.08-1.49,11.17,11.17,0,0,1-.25-2.67,10.42,10.42,0,0,1,.28-2.71A2.08,2.08,0,0,1,239.4,225,6.76,6.76,0,0,1,242.45,224.4Z" style="fill: #267764"/>
      <path d="M275.3,241.25h19.58a17,17,0,0,1,2.19.1,4.89,4.89,0,0,1,1.68.6c1.15.59,1.72,2.25,1.72,5,0,3-.78,4.7-2.35,5.21a10.47,10.47,0,0,1-3.31.38H269.64q-4.45,0-5.22-2.41a10.13,10.13,0,0,1-.38-3.24V211.5c0-2.16.41-3.63,1.21-4.42s2.33-1.18,4.58-1.18h25.05a19.07,19.07,0,0,1,2.19.1,4.89,4.89,0,0,1,1.68.6q1.72.9,1.72,5,0,4.45-2.35,5.22a10.77,10.77,0,0,1-3.31.38H275.3v6.42h12.58a19.67,19.67,0,0,1,2.2.09,5.24,5.24,0,0,1,1.68.61q1.73.89,1.72,5,0,4.44-2.42,5.21a10.74,10.74,0,0,1-3.3.38H275.3Z" style="fill: #267764"/>
      <g>
        <path d="M23.76,289.75l.9-.65a6,6,0,0,1,2.41-1c1,0,2.16.93,3.37,2.81a5.78,5.78,0,0,1,1.1,2.81,2.45,2.45,0,0,1-.67,1.76,8,8,0,0,1-1.59,1.26l-1.73,1.05a18.73,18.73,0,0,1-3.39,1.31,16.71,16.71,0,0,1-4.95.8,19.17,19.17,0,0,1-4.82-.63,20.36,20.36,0,0,1-5-2.11,20.72,20.72,0,0,1-4.65-3.61,16.81,16.81,0,0,1-3.39-5.48A19.41,19.41,0,0,1,0,280.81a18.45,18.45,0,0,1,1.31-7.11,16.25,16.25,0,0,1,3.34-5.27,19,19,0,0,1,4.64-3.49,20.3,20.3,0,0,1,9.9-2.71A16.49,16.49,0,0,1,24,263a16.71,16.71,0,0,1,3.7,1.48l1.2.7q.9.56,1.41.9a3,3,0,0,1,1.3,2.39,4.81,4.81,0,0,1-1.05,2.79q-2,2.71-3.52,2.71a5.38,5.38,0,0,1-2.56-1.1,8.65,8.65,0,0,0-5.62-1.71,10.94,10.94,0,0,0-6.43,2.26,8.31,8.31,0,0,0-2.51,3.11,10.73,10.73,0,0,0,0,9.09,8.58,8.58,0,0,0,2.56,3.17A10.78,10.78,0,0,0,18.84,291a10.37,10.37,0,0,0,2.93-.4A7.51,7.51,0,0,0,23.76,289.75Z" style="fill: #267764"/>
        <path d="M52.14,262.13a18.51,18.51,0,0,1,18.38,18.71A19.16,19.16,0,0,1,65.3,294.4,16.92,16.92,0,0,1,52.44,300a17.4,17.4,0,0,1-13-5.53,18.28,18.28,0,0,1-5.34-13.16,20.34,20.34,0,0,1,1.5-7.81,18.32,18.32,0,0,1,4-6.1,18.8,18.8,0,0,1,5.78-3.87A17,17,0,0,1,52.14,262.13ZM43,281.06a9.66,9.66,0,0,0,2.88,7.26,8.93,8.93,0,0,0,12.89.08,9.56,9.56,0,0,0,2.86-7.29,9.66,9.66,0,0,0-2.89-7.33,8.87,8.87,0,0,0-12.88,0A9.68,9.68,0,0,0,43,281.06Z" style="fill: #267764"/>
        <path d="M82.68,292H96.34a5.73,5.73,0,0,1,2.41.38,1.94,1.94,0,0,1,1,1.18,9.24,9.24,0,0,1,0,4.27,1.78,1.78,0,0,1-.86,1.11,5.74,5.74,0,0,1-2.61.5H78.21q-3.52,0-4.12-1.91a8,8,0,0,1-.3-2.56V267a14.79,14.79,0,0,1,.07-1.73,3.93,3.93,0,0,1,.48-1.33c.47-.91,1.77-1.36,3.92-1.36q3.51,0,4.17,1.86a10.33,10.33,0,0,1,.25,2.61Z" style="fill: #267764"/>
        <path d="M112.16,292h13.66a5.7,5.7,0,0,1,2.41.38,1.91,1.91,0,0,1,1,1.18,9.24,9.24,0,0,1,0,4.27,1.77,1.77,0,0,1-.85,1.11,5.76,5.76,0,0,1-2.62.5H107.69c-2.34,0-3.72-.64-4.12-1.91a8,8,0,0,1-.3-2.56V267a14.31,14.31,0,0,1,.08-1.73,3.88,3.88,0,0,1,.47-1.33c.47-.91,1.78-1.36,3.92-1.36q3.51,0,4.17,1.86a9.89,9.89,0,0,1,.25,2.61Z" style="fill: #267764"/>
        <path d="M141.65,290.51h15.47a14.9,14.9,0,0,1,1.73.07,4,4,0,0,1,1.33.48c.91.47,1.36,1.77,1.36,3.92,0,2.34-.62,3.71-1.86,4.12a8.43,8.43,0,0,1-2.61.3H137.18q-3.52,0-4.12-1.91a8,8,0,0,1-.3-2.56V267c0-1.71.31-2.87,1-3.49s1.84-.93,3.62-.93h19.79a14.9,14.9,0,0,1,1.73.07,4,4,0,0,1,1.33.48c.91.47,1.36,1.78,1.36,3.92,0,2.34-.62,3.72-1.86,4.12a8.43,8.43,0,0,1-2.61.3H141.65v5.07h9.94a14.31,14.31,0,0,1,1.73.08,4,4,0,0,1,1.34.48c.9.46,1.35,1.77,1.35,3.91q0,3.53-1.91,4.12a8.43,8.43,0,0,1-2.61.3h-9.84Z" style="fill: #267764"/>
        <path d="M187.81,289.75l.9-.65a6,6,0,0,1,2.41-1c1,0,2.16.93,3.37,2.81a5.89,5.89,0,0,1,1.1,2.81,2.41,2.41,0,0,1-.68,1.76,8,8,0,0,1-1.58,1.26l-1.73,1.05a18.73,18.73,0,0,1-3.39,1.31,16.71,16.71,0,0,1-5,.8,19.17,19.17,0,0,1-4.82-.63,20.2,20.2,0,0,1-5-2.11,20.72,20.72,0,0,1-4.65-3.61,16.81,16.81,0,0,1-3.39-5.48,19.41,19.41,0,0,1-1.33-7.26,18.64,18.64,0,0,1,1.3-7.11,16.42,16.42,0,0,1,3.34-5.27,19.27,19.27,0,0,1,4.65-3.49,20.3,20.3,0,0,1,9.9-2.71,19.2,19.2,0,0,1,8.48,2.21l1.21.7q.9.56,1.41.9a3,3,0,0,1,1.3,2.39,4.81,4.81,0,0,1-1,2.79q-2,2.71-3.52,2.71a5.34,5.34,0,0,1-2.56-1.1,8.67,8.67,0,0,0-5.63-1.71,11,11,0,0,0-6.43,2.26,8.5,8.5,0,0,0-2.51,3.11,10.83,10.83,0,0,0,0,9.09,8.78,8.78,0,0,0,2.56,3.17,10.8,10.8,0,0,0,6.38,2.21,10.39,10.39,0,0,0,2.94-.4A7.82,7.82,0,0,0,187.81,289.75Z" style="fill: #267764"/>
        <path d="M201.32,262.53h27.92a5.64,5.64,0,0,1,2.37.37,1.94,1.94,0,0,1,1,1.19,7.11,7.11,0,0,1,.25,2.11,6.89,6.89,0,0,1-.25,2.08,1.73,1.73,0,0,1-.85,1.08,5.92,5.92,0,0,1-2.57.45H219.6v25.27a13.81,13.81,0,0,1-.08,1.71,4.2,4.2,0,0,1-.45,1.28,2.13,2.13,0,0,1-1.33,1,8.55,8.55,0,0,1-2.51.3,8.36,8.36,0,0,1-2.49-.3,2.12,2.12,0,0,1-1.3-1,4.08,4.08,0,0,1-.45-1.31,14.31,14.31,0,0,1-.08-1.73V269.81h-9.64a5.56,5.56,0,0,1-2.36-.37,1.93,1.93,0,0,1-1-1.19,7.08,7.08,0,0,1-.25-2.1,6.92,6.92,0,0,1,.25-2.09,1.73,1.73,0,0,1,.85-1.08A5.92,5.92,0,0,1,201.32,262.53Z" style="fill: #267764"/>
        <path d="M249.89,262.13a18.51,18.51,0,0,1,18.38,18.71,19.16,19.16,0,0,1-5.22,13.56,16.9,16.9,0,0,1-12.86,5.6,17.36,17.36,0,0,1-13-5.53,18.25,18.25,0,0,1-5.35-13.16,20.34,20.34,0,0,1,1.5-7.81,18.32,18.32,0,0,1,4-6.1,18.92,18.92,0,0,1,5.78-3.87A17,17,0,0,1,249.89,262.13Zm-9.14,18.93a9.63,9.63,0,0,0,2.89,7.26,8.92,8.92,0,0,0,12.88.08,9.56,9.56,0,0,0,2.86-7.29,9.66,9.66,0,0,0-2.89-7.33,8.87,8.87,0,0,0-12.88,0A9.68,9.68,0,0,0,240.75,281.06Z" style="fill: #267764"/>
        <path d="M299.72,293.17a8,8,0,0,1,.75,2.61q0,1.91-3.11,3.22a7.13,7.13,0,0,1-2.59.7,2.59,2.59,0,0,1-1.61-.48,3.52,3.52,0,0,1-.93-1c-.33-.63-1.64-3.67-3.92-9.09l-1.55.1h-6.33v5.68a14.43,14.43,0,0,1-.08,1.73,4.11,4.11,0,0,1-.47,1.33c-.47.91-1.78,1.36-3.92,1.36-2.35,0-3.72-.62-4.12-1.86a8.43,8.43,0,0,1-.3-2.61V267a14.79,14.79,0,0,1,.07-1.73,3.93,3.93,0,0,1,.48-1.33c.47-.91,1.77-1.36,3.92-1.36h10.85a14,14,0,0,1,8.59,3.21,11.82,11.82,0,0,1,3.31,4.22,13.3,13.3,0,0,1,1.31,5.93,12.48,12.48,0,0,1-3.77,9.34Q297.41,288,299.72,293.17Zm-19.29-12.81h6.43a4.84,4.84,0,0,0,2.91-1.1,3.92,3.92,0,0,0,1.46-3.32,4,4,0,0,0-1.46-3.34,4.89,4.89,0,0,0-3-1.13h-6.33Z" style="fill: #267764"/>
      </g>
    </g>
    <g>
      <path d="M230.08,96.58,196,3a4.55,4.55,0,0,0-4.23-3c-6,0-79,0-83.15,0a4.53,4.53,0,0,0-4.21,3c-4.23,11.6-10.88,29.87-17.48,48-6.26,17.2-12.48,34.3-16.57,45.52a4.55,4.55,0,0,0,4,6.09c3.63.2,11.32.16,18.1.12l5.59,0v21.59a9.71,9.71,0,1,0,19.42,0V102.79h6.31c1.86,8.3,4.14,24.59-4,32.61a19.33,19.33,0,0,1-5.7,1.6c-3.82.68-8.57,1.52-13.32,6.18-8.67,7.58-8.62,22.36-8.19,28.39a4.54,4.54,0,0,0,4.53,4.22h1.27a4.83,4.83,0,0,0,.94.1H201.11a4.83,4.83,0,0,0,.94-.1h1.27a4.54,4.54,0,0,0,4.53-4.22c.43-6,.48-20.8-8.18-28.39-4.75-4.66-9.5-5.5-13.32-6.18a19,19,0,0,1-5.7-1.6c-8-7.93-6.05-23.6-4-32.63,3.43,0,8.62,0,14.35,0,17.94,0,31.91.06,35.1-.12a4.54,4.54,0,0,0,4-6.09Zm-57,1.66c-3.21,12-5.71,31.09,4.88,40.85,6.28,3.64,12.23,1,18.64,7.42,5.88,5.06,7.38,15.67,6.74,24.74h-2.21v.1H99.36v-.1H97.15c-.64-9.06.86-19.69,6.75-24.74,6.4-6.37,12.36-3.78,18.64-7.42,10.58-9.72,8.09-28.93,4.84-40.85H113v26.12a5.17,5.17,0,1,1-10.34,0V98.24c-5.89-.09-22.33.2-28-.11,8.4-23.06,25.82-70.95,34.05-93.55,4.18,0,77.05,0,83.05,0l34.05,93.55C220.55,98.44,179.39,98.15,173.06,98.24Z" style="fill: #267764"/>
      <polygon points="193.55 33.09 106.92 33.09 114.37 12.62 186.1 12.62 193.55 33.09" style="fill: #65b552"/>
      <polygon points="203.94 61.64 96.53 61.64 103.98 41.16 196.49 41.16 203.94 61.64" style="fill: #65b552"/>
      <polygon points="214.33 90.18 86.14 90.18 93.59 69.7 206.88 69.7 214.33 90.18" style="fill: #65b552"/>
      <path d="M192.78,161H107.69c1.41-12.19,12.3-7.67,20.6-13.44,15.78-13.38,12.64-33.76,9.78-49.33H162.4c-3,14.51-4.38,27.33,3.51,42.8-4.61.81-19.53-3-19.33,5.16a5.17,5.17,0,0,0,5.17,5.18h29C187.22,150.78,191.88,154.29,192.78,161Z" style="fill: #65b552"/>
    </g>
  </g>
</svg>
